<svg width="147" height="108" viewBox="0 0 147 108" fill="none" xmlns="http://www.w3.org/2000/svg">
<path d="M68.8838 21.3608C67.9058 21.9579 67.6774 22.7159 67.4951 23.3802C67.4654 23.5147 67.4364 23.6486 67.4066 23.7795C66.8266 26.681 67.5802 29.1064 67.8085 31.2833C67.8199 31.3833 67.8327 31.4844 67.8457 31.5832C68.184 34.0329 68.7666 36.2484 69.082 38.3975C69.0918 38.4627 69.1018 38.5277 69.1112 38.5923C69.462 40.9329 69.4146 43.3202 69.5212 45.8326C69.523 45.874 69.5245 45.9154 69.5264 45.9568C69.6309 48.232 69.7609 50.4844 70.0108 52.6867C70.0127 52.7035 70.0144 52.7206 70.0164 52.7373C70.0368 52.9069 70.0604 53.0744 70.0849 53.2402C69.7557 52.9086 69.3899 52.5693 68.9663 52.2197C68.7079 52.0191 68.4407 51.8285 68.166 51.6487C65.6233 49.9673 62.694 49.6044 60.2064 49.3782C59.9019 49.3508 59.5961 49.3389 59.2912 49.3417C56.8044 49.362 54.5172 50.3785 52.727 51.7867C52.436 52.0165 52.1757 52.2787 51.9488 52.5691C51.6177 52.9951 51.3085 53.4547 51.0974 54.02C50.9874 54.2968 50.8983 54.5847 50.8499 54.8811C50.3803 59.9373 53.8517 62.3995 55.4975 64.733C55.5925 64.8519 55.6883 64.9693 55.7848 65.0856C57.3327 66.9516 59.0018 68.5829 60.5607 70.017C60.6435 70.0933 60.7268 70.1692 60.8102 70.2448C62.3357 71.6278 64.2653 72.5653 65.8673 73.8639C65.9098 73.8958 65.9559 73.9346 66.0029 73.9774C68.2676 76.3347 70.2137 80.1796 71.7422 83.6821C71.7627 83.7307 71.7828 83.7794 71.803 83.8275C72.1792 84.7242 72.5354 85.6288 72.8859 86.5478C73.6576 88.5925 74.4762 90.7433 75.4599 92.7862C75.4678 92.8028 75.4761 92.8194 75.4838 92.836C76.5157 94.9511 75.3845 97.5782 75.9358 100.749L75.9631 100.859C75.9655 100.87 75.9676 100.882 75.97 100.894C76.0721 101.388 76.1725 101.843 76.2812 102.42C76.2826 102.427 76.2841 102.434 76.2854 102.442C76.4131 103.186 76.6818 104.151 76.9468 104.869C77.181 105.523 77.6656 106.057 78.2933 106.354C78.921 106.65 79.6409 106.686 80.2943 106.452C80.9478 106.218 81.4816 105.734 81.7781 105.106C82.0746 104.478 82.1097 103.758 81.8756 103.104C81.6604 102.498 81.5448 102.104 81.4278 101.462C81.4264 101.455 81.425 101.448 81.4236 101.44C81.3165 100.868 81.1814 100.176 80.9753 99.542C80.9704 99.5267 80.9652 99.5113 80.9602 99.496L80.9881 99.6054C80.2834 97.4831 79.5708 94.4358 78.2025 91.5659C78.1919 91.5433 78.1816 91.5201 78.1709 91.4975C77.2355 89.5528 76.4794 87.5685 75.69 85.4778C75.3337 84.5436 74.9627 83.6003 74.5712 82.6674C74.5502 82.6173 74.5286 82.567 74.5073 82.5163C72.8181 78.7531 71.556 75.1069 68.5504 71.4308C68.4698 71.3459 68.386 71.26 68.3017 71.177C66.8528 69.7096 65.7312 67.881 64.2059 66.498C64.1225 66.4224 64.0386 66.3468 63.9546 66.2718C62.262 64.7693 60.5686 63.558 59.2512 62.0959C59.1693 62.0054 59.0886 61.9144 59.0092 61.8229C56.844 59.4113 54.7635 57.0777 55.0576 55.5156C55.0697 55.41 55.0689 55.2994 55.0743 55.1801C55.0373 55.1496 55.0238 55.0516 55.0716 54.9873C55.1034 54.9433 55.1417 54.9016 55.1814 54.8678C56.4213 53.8548 57.898 53.214 59.3278 53.2073C59.505 53.2057 59.6819 53.2128 59.8582 53.2291C62.2461 53.4416 64.3895 53.8283 65.982 54.9388C66.1603 55.0601 66.3335 55.1897 66.5023 55.3281C67.1485 55.8745 67.9852 56.9469 68.7674 57.9451C69.1708 58.458 69.5748 58.9834 70.0671 59.5459C70.3263 59.832 70.5627 60.1147 71.0519 60.4995C71.1126 60.5458 71.1871 60.6001 71.2739 60.6567C71.3625 60.7138 71.443 60.7634 71.5816 60.8337C71.841 60.9406 72.1567 61.1691 73.0275 61.1009C73.4275 61.062 73.9503 60.8478 74.2889 60.5423C74.5949 60.2845 74.8121 59.9252 74.895 59.7442C75.1003 59.2919 75.1192 59.0658 75.1557 58.8253C75.1559 58.8231 75.1563 58.8209 75.1566 58.8187C75.462 56.1288 74.9806 54.01 74.8016 52.1816C74.8 52.1681 74.7986 52.1546 74.797 52.1411C74.5399 49.9123 74.1273 47.7365 73.8307 45.5694C73.8253 45.5301 73.8202 45.4906 73.8148 45.4513C73.4852 43.0377 73.0966 40.4816 72.5218 37.9586C72.5063 37.8892 72.4908 37.819 72.4748 37.749C71.9412 35.4188 71.178 33.2561 70.8992 31.1829C70.8884 31.1002 70.878 31.0164 70.8687 30.9345C70.5658 28.4991 70.0501 26.2487 70.4397 24.5118C71.461 24.5789 72.3814 25.0838 72.8474 25.6736C72.8879 25.7211 72.9263 25.7702 72.9645 25.8224C75.3567 29.2207 77.6605 33.2898 78.98 37.1117C79.0196 37.2412 79.057 37.3728 79.0862 37.4878C79.2654 38.1563 79.4598 38.7783 79.6596 39.3791C79.6946 39.6468 79.7338 39.9172 79.7812 40.1898C79.8297 40.4641 79.8841 40.7392 79.9454 41.0142C80.2146 42.1773 80.5728 43.1968 81.0579 44.2351C81.1869 44.507 81.3249 44.7789 81.4816 45.0584C81.5452 45.1706 81.5783 45.2313 81.6707 45.3787C81.6912 45.4109 81.7125 45.4435 81.7358 45.4779C81.7712 45.5298 81.8123 45.5881 81.8706 45.6605C81.8853 45.6788 81.9016 45.6983 81.9196 45.7191C81.9286 45.7296 81.9377 45.7404 81.9482 45.7522C81.9685 45.7748 81.9915 45.7992 82.0179 45.826C82.135 45.9293 82.2463 46.0948 82.7458 46.2991C82.7779 46.311 82.812 46.3228 82.848 46.3339C82.8837 46.3444 82.9179 46.3563 83.0202 46.3785C83.1977 46.4158 83.4205 46.436 83.67 46.4032C84.1778 46.352 84.7122 45.9975 84.9463 45.6688C85.195 45.3408 85.2642 45.0703 85.3031 44.9104C85.3199 44.8362 85.3304 44.7725 85.3374 44.7163C85.3629 44.4941 85.3515 44.3767 85.3446 44.2799C85.3342 44.1713 85.3299 44.1537 85.3236 44.1108C85.3176 44.0732 85.311 44.04 85.3048 44.009C85.2921 43.9455 85.2807 43.8963 85.2726 43.863C85.2557 43.7932 85.233 43.7107 85.2198 43.6647C85.1879 43.5533 85.1567 43.4531 85.1263 43.358C85.0044 42.9791 84.8873 42.647 84.7688 42.3112C84.5319 41.6432 84.2934 40.9884 84.0596 40.3361C83.718 39.3765 83.3605 38.386 83.0731 37.4642C82.8814 35.965 82.7747 34.3482 82.5678 32.6915C82.5401 32.465 82.5117 32.2353 82.4839 32.0042C81.9757 27.6363 81.3288 22.8868 82.5035 19.4376C82.5701 19.2711 82.6372 19.1104 82.7057 18.957C83.0163 18.2168 83.4617 17.8443 83.6685 17.8699C83.8453 17.9731 83.997 18.0557 84.1461 18.1123C85.4164 18.582 85.8793 19.0742 86.0395 19.5675C86.1059 19.7491 86.1745 19.9302 86.2428 20.107C87.1402 22.4034 88.0504 24.4888 88.5292 26.5815C88.5691 26.7555 88.6104 26.9274 88.6531 27.097C89.3786 29.8446 90.216 32.1105 90.4422 34.373C90.4572 34.5133 90.4734 34.6567 90.4899 34.7982C90.5122 34.9875 90.5361 35.1761 90.5601 35.364C90.5598 35.6101 90.5614 35.8587 90.5664 36.1096C90.5772 36.5789 90.597 37.0575 90.633 37.5456C90.7318 38.9091 91.0372 40.2489 91.4419 41.4748C91.5198 41.7132 91.6004 41.947 91.6748 42.1605C91.7054 42.2486 91.7348 42.3332 91.7589 42.4051C91.7701 42.4591 91.7812 42.5137 91.7927 42.5683C91.8013 42.6088 91.8126 42.664 91.8229 42.7108C91.8267 42.728 91.8366 42.7719 91.8445 42.8056C91.8513 42.8292 91.8425 42.8154 91.8954 42.9969C91.9044 43.0255 91.9151 43.0605 91.9388 43.1245C91.9511 43.1571 91.9664 43.1971 91.9927 43.2564C92.0007 43.2731 92.0314 43.3487 92.1042 43.4755C92.1957 43.605 92.2434 43.7933 92.75 44.1891C93.0062 44.3722 93.4955 44.6536 94.2154 44.6216C94.9398 44.5985 95.5791 44.1522 95.8412 43.8235C96.3692 43.138 96.3098 42.8828 96.3659 42.7019C96.4138 42.3692 96.3946 42.3072 96.3956 42.2279C96.3892 42.0965 96.3829 42.0655 96.379 42.0295C96.3669 41.9387 96.3707 41.9697 96.3671 41.9447C96.337 41.7653 96.3274 41.7257 96.3064 41.615C96.2854 41.5149 96.266 41.4338 96.2485 41.3657C96.2347 41.295 96.2204 41.2242 96.2072 41.1555C96.1446 40.8295 96.0833 40.5007 96.0235 40.1719C95.9035 39.5119 95.789 38.8516 95.6801 38.1932C95.4626 36.8743 95.2634 35.5534 95.115 34.265C95.1004 34.137 95.0862 34.0085 95.0731 33.8837C95.052 33.6764 95.0264 33.4704 94.9986 33.2659C94.9531 32.1899 94.8925 31.0762 94.7835 29.9409C94.7429 29.5218 94.7052 29.1037 94.6719 28.6868C94.4676 26.0641 94.2472 23.4978 94.4237 21.1129C94.4529 20.7119 94.4765 20.3159 94.4985 19.9264C94.5705 18.1152 94.7587 16.2405 95.1701 15.169C96.0798 16.7939 96.8007 18.792 97.4329 20.7799C97.5427 21.1275 97.6532 21.4735 97.7628 21.818C98.6938 24.7472 99.6662 27.5781 100.154 30.3833C100.197 30.6253 100.232 30.8963 100.259 31.1814C100.657 33.9928 99.7861 37.0131 101.934 41.2336C102.02 41.3648 102.141 41.5294 102.357 41.7146C102.467 41.8073 102.594 41.8995 102.769 41.9912C102.997 42.1104 103.291 42.2067 103.603 42.2321C103.915 42.2597 104.232 42.2134 104.489 42.1264C104.729 42.0436 104.86 41.9686 104.999 41.8803C105.261 41.7077 105.415 41.5357 105.514 41.4145C105.654 41.2389 105.721 41.1128 105.772 41.0128C105.812 40.933 105.834 40.8796 105.855 40.8277C105.927 40.6405 105.938 40.5784 105.955 40.5127C105.984 40.395 105.993 40.3326 106.002 40.2773C106.019 40.168 106.027 40.094 106.034 40.0224C106.048 39.8821 106.055 39.7648 106.059 39.6479C106.069 39.4148 106.068 39.1926 106.057 38.9557C106.054 38.8817 106.051 38.8062 106.046 38.7286C106.027 38.3273 106.028 37.9356 105.976 37.5618C105.65 35.3313 105.17 33.3978 105.257 31.8295C105.275 31.4703 105.285 31.1187 105.29 30.7736C105.31 28.2494 105.075 26.0114 105.37 23.8974C105.41 23.6106 105.452 23.327 105.498 23.0457C105.952 20.0248 107.008 16.9239 108.603 16.4944C108.859 16.3979 109.101 16.3085 109.326 16.2321C109.943 16.0145 110.427 15.9751 110.652 16.0169C110.656 16.0273 110.66 16.0377 110.664 16.0481C110.868 16.6212 111.015 17.2756 111.12 17.965C111.159 18.2277 111.201 18.4876 111.243 18.7449C111.638 21.0867 112.099 23.2465 112.182 25.3397C112.191 25.5694 112.199 25.7911 112.208 26.0189C112.317 29.1817 112.377 32.2541 112.03 35.1733C112.009 35.3629 111.989 35.552 111.968 35.7407C111.67 38.5147 111.461 41.2481 111.078 43.829C111.053 43.9958 111.031 44.1626 111.01 44.3269C110.662 47.1137 110.671 49.8781 109.963 51.4255C109.909 51.5403 109.852 51.6604 109.797 51.7763C108.417 54.7411 106.862 57.7733 106.219 61.5336C106.206 61.6272 106.192 61.7206 106.179 61.8143C105.838 64.3065 105.938 66.8656 105.987 69.4511C105.989 69.5121 105.99 69.5734 105.991 69.6347C105.993 69.8175 105.995 70.0021 105.996 70.1884C105.971 72.4895 106.23 75.2295 107.443 77.4965C107.462 77.5334 107.481 77.5701 107.5 77.6067C109.306 81.0905 111.162 84.4841 113.505 87.8054C113.596 87.9241 113.724 88.0157 113.871 88.0531C114.019 88.0906 114.173 88.0715 114.302 87.999C114.431 87.9264 114.528 87.8049 114.573 87.6595C114.618 87.5141 114.606 87.3576 114.552 87.2179C113.3 83.5542 111.886 79.7888 110.073 76.2915C110.054 76.2546 110.035 76.2174 110.016 76.1803C109.059 74.3665 108.709 72.4188 108.694 70.1503C108.691 69.969 108.688 69.7858 108.686 69.6009C108.685 69.5387 108.685 69.4762 108.684 69.4136C108.683 67.1174 109.474 64.8208 110.003 62.5186C110.023 62.4315 110.043 62.3443 110.064 62.2571C110.761 59.5514 112.395 56.7249 113.892 53.8008C113.952 53.6836 114.015 53.5609 114.075 53.4426C115.569 50.1004 115.315 47.372 115.693 44.933C115.711 44.795 115.73 44.6578 115.75 44.5242C116.166 41.6579 116.314 38.8933 116.558 36.1912C116.574 36.0074 116.59 35.8235 116.607 35.6399C116.925 32.2666 116.654 29.0044 116.549 25.859C116.541 25.6304 116.533 25.4085 116.525 25.1786C116.438 22.6516 116.007 20.2628 115.677 18.0486C115.642 17.8063 115.607 17.5664 115.575 17.3289C115.451 16.4331 115.266 15.5122 114.948 14.5695C114.843 14.2589 114.725 13.9454 114.586 13.6317C114.086 12.5681 113.294 12.1518 112.778 11.9155C112.281 11.7015 111.865 11.612 111.471 11.5503C109.96 11.3321 108.778 11.7652 107.873 12.0773C107.569 12.1858 107.287 12.2961 107.021 12.4014C103.923 13.8491 102.721 16.2639 102.074 18.6366C101.31 16.3624 100.44 14.0938 98.9677 11.8126C98.7085 11.4221 98.3991 11.047 98.0508 10.6817C97.6495 10.1943 96.8334 9.6703 96.0337 9.58845C95.239 9.49318 94.6606 9.68113 94.2409 9.84813C93.4425 10.1922 93.0134 10.5736 92.5895 10.9706C90.5382 13.2781 90.3476 15.4926 90.3163 17.4411C89.3127 15.3027 87.0597 14.238 85.5968 13.8343C85.4087 13.7764 85.2209 13.7486 85.0618 13.7385C84.12 13.5059 83.2773 13.7664 82.7128 13.9929C82.4037 14.115 82.144 14.2589 81.9137 14.4064C80.4548 15.3746 80.0281 16.6173 79.5779 17.5732C79.4876 17.7791 79.4051 17.9817 79.3272 18.1806C78.331 21.377 78.3298 24.305 78.5795 27.1297C77.8565 25.8902 77.0749 24.6703 76.2277 23.4457C76.1287 23.3096 76.0262 23.179 75.9166 23.0507C74.3157 21.1824 71.8719 20.7118 69.8015 21.0509C69.4755 21.0959 69.153 21.2086 68.8838 21.3608ZM73.5347 57.0101C73.5887 57.042 73.5972 57.0525 73.5977 57.0541C73.59 57.0529 73.5674 57.0364 73.5347 57.0101ZM81.5398 44.7729C81.5406 44.7705 81.5399 44.7789 81.536 44.7589C81.5379 44.7662 81.5398 44.7729 81.5398 44.7729ZM95.9121 14.2214C95.9799 14.1809 96.0183 14.1658 95.9653 14.1989C95.9539 14.2037 95.9364 14.2116 95.9121 14.2214ZM70.5185 24.2617C70.5458 24.2255 70.5976 24.1905 70.6206 24.2078C70.6434 24.221 70.6303 24.3021 70.4935 24.3921C70.4854 24.3974 70.4763 24.4016 70.4674 24.4067C70.4824 24.3571 70.4987 24.3081 70.5185 24.2617Z" fill="#7C84FE"/>
<path d="M77.3818 21.3608C78.3598 21.9579 78.5882 22.7159 78.7705 23.3802C78.8003 23.5147 78.8292 23.6486 78.859 23.7795C79.439 26.681 78.6855 29.1064 78.4571 31.2833C78.4457 31.3833 78.4329 31.4844 78.4199 31.5832C78.0816 34.0329 77.499 36.2484 77.1837 38.3975C77.1738 38.4627 77.1638 38.5277 77.1544 38.5923C76.8036 40.9329 76.851 43.3202 76.7444 45.8326C76.7426 45.874 76.7412 45.9154 76.7393 45.9568C76.6347 48.232 76.5047 50.4844 76.2548 52.6867C76.2529 52.7035 76.2512 52.7206 76.2492 52.7373C76.2288 52.9069 76.2053 53.0744 76.1808 53.2402C76.51 52.9086 76.8757 52.5693 77.2993 52.2197C77.5577 52.0191 77.8249 51.8285 78.0996 51.6487C80.6423 49.9673 83.5717 49.6044 86.0593 49.3782C86.3637 49.3508 86.6695 49.3389 86.9744 49.3417C89.4612 49.362 91.7485 50.3785 93.5386 51.7867C93.8296 52.0165 94.0899 52.2787 94.3168 52.5691C94.6479 52.9951 94.9572 53.4547 95.1683 54.02C95.2783 54.2968 95.3673 54.5847 95.4157 54.8811C95.8853 59.9373 92.414 62.3995 90.7681 64.733C90.6731 64.8519 90.5773 64.9693 90.4808 65.0856C88.933 66.9516 87.2638 68.5829 85.7049 70.017C85.6221 70.0933 85.5388 70.1692 85.4554 70.2448C83.9299 71.6278 82.0003 72.5653 80.3983 73.8639C80.3558 73.8958 80.3097 73.9346 80.2627 73.9774C77.9981 76.3347 76.0519 80.1796 74.5235 83.6821C74.5029 83.7307 74.4828 83.7794 74.4627 83.8275C74.0864 84.7242 73.7302 85.6288 73.3797 86.5478C72.608 88.5925 71.7894 90.7433 70.8057 92.7862C70.7978 92.8028 70.7895 92.8194 70.7818 92.836C69.75 94.9511 70.8811 97.5782 70.3299 100.749L70.3026 100.859C70.3002 100.87 70.298 100.882 70.2956 100.894C70.1935 101.388 70.0931 101.843 69.9844 102.42C69.983 102.427 69.9816 102.434 69.9802 102.442C69.8526 103.186 69.5838 104.151 69.3189 104.869C69.0847 105.523 68.6 106.057 67.9723 106.354C67.3446 106.65 66.6248 106.686 65.9713 106.452C65.3178 106.218 64.784 105.734 64.4875 105.106C64.191 104.478 64.1559 103.758 64.3901 103.104C64.6053 102.498 64.7208 102.104 64.8379 101.462C64.8392 101.455 64.8407 101.448 64.842 101.44C64.9491 100.868 65.0842 100.176 65.2903 99.542C65.2952 99.5267 65.3004 99.5113 65.3054 99.496L65.2776 99.6054C65.9822 97.4831 66.6948 94.4358 68.0631 91.5659C68.0737 91.5433 68.084 91.5201 68.0948 91.4975C69.0301 89.5528 69.7863 87.5685 70.5756 85.4778C70.9319 84.5436 71.3029 83.6003 71.6944 82.6674C71.7154 82.6173 71.737 82.567 71.7583 82.5163C73.4475 78.7531 74.7096 75.1069 77.7152 71.4308C77.7958 71.3459 77.8796 71.26 77.9639 71.177C79.4128 69.7096 80.5344 67.881 82.0597 66.498C82.1431 66.4224 82.227 66.3468 82.311 66.2718C84.0036 64.7693 85.697 63.558 87.0145 62.0959C87.0963 62.0054 87.1771 61.9144 87.2564 61.8229C89.4216 59.4113 91.5021 57.0777 91.208 55.5156C91.1959 55.41 91.1967 55.2994 91.1913 55.1801C91.2283 55.1496 91.2418 55.0516 91.194 54.9873C91.1622 54.9433 91.1239 54.9016 91.0843 54.8678C89.8443 53.8548 88.3676 53.214 86.9379 53.2073C86.7606 53.2057 86.5837 53.2128 86.4074 53.2291C84.0195 53.4416 81.8761 53.8283 80.2836 54.9388C80.1053 55.0601 79.9322 55.1897 79.7634 55.3281C79.1171 55.8745 78.2804 56.9469 77.4982 57.9451C77.0948 58.458 76.6908 58.9834 76.1986 59.5459C75.9394 59.832 75.7029 60.1147 75.2137 60.4995C75.153 60.5458 75.0786 60.6001 74.9917 60.6567C74.9031 60.7138 74.8226 60.7634 74.684 60.8337C74.4246 60.9406 74.1089 61.1691 73.2381 61.1009C72.8381 61.062 72.3153 60.8478 71.9767 60.5423C71.6707 60.2845 71.4535 59.9252 71.3706 59.7442C71.1653 59.2919 71.1464 59.0658 71.11 58.8253C71.1097 58.8231 71.1093 58.8209 71.109 58.8187C70.8037 56.1288 71.285 54.01 71.464 52.1816C71.4656 52.1681 71.467 52.1546 71.4686 52.1411C71.7257 49.9123 72.1384 47.7365 72.4349 45.5694C72.4403 45.5301 72.4455 45.4906 72.4509 45.4513C72.7804 43.0377 73.1691 40.4816 73.7438 37.9586C73.7593 37.8892 73.7748 37.819 73.7908 37.749C74.3244 35.4188 75.0876 33.2561 75.3664 31.1829C75.3773 31.1002 75.3876 31.0164 75.3969 30.9345C75.6999 28.4991 76.2155 26.2487 75.826 24.5118C74.8047 24.5789 73.8843 25.0838 73.4182 25.6736C73.3777 25.7211 73.3393 25.7702 73.3011 25.8224C70.909 29.2207 68.6051 33.2898 67.2856 37.1117C67.246 37.2412 67.2086 37.3728 67.1794 37.4878C67.0002 38.1563 66.8058 38.7783 66.606 39.3791C66.5711 39.6468 66.5318 39.9172 66.4845 40.1898C66.4359 40.4641 66.3815 40.7392 66.3203 41.0142C66.051 42.1773 65.6928 43.1968 65.2078 44.2351C65.0787 44.507 64.9408 44.7789 64.784 45.0584C64.7205 45.1706 64.6874 45.2313 64.5949 45.3787C64.5744 45.4109 64.5532 45.4435 64.5298 45.4779C64.4944 45.5298 64.4533 45.5881 64.3951 45.6605C64.3803 45.6788 64.364 45.6983 64.346 45.7191C64.337 45.7296 64.3279 45.7404 64.3174 45.7522C64.2971 45.7748 64.2742 45.7992 64.2477 45.826C64.1306 45.9293 64.0193 46.0948 63.5198 46.2991C63.4877 46.311 63.4536 46.3228 63.4176 46.3339C63.3819 46.3444 63.3477 46.3563 63.2454 46.3785C63.0679 46.4158 62.8451 46.436 62.5956 46.4032C62.0878 46.352 61.5535 45.9975 61.3193 45.6688C61.0707 45.3408 61.0014 45.0703 60.9625 44.9104C60.9457 44.8362 60.9352 44.7725 60.9282 44.7163C60.9027 44.4941 60.9141 44.3767 60.9211 44.2799C60.9314 44.1713 60.9357 44.1537 60.942 44.1108C60.9481 44.0732 60.9547 44.04 60.9608 44.009C60.9735 43.9455 60.9849 43.8963 60.993 43.863C61.0099 43.7932 61.0326 43.7107 61.0458 43.6647C61.0777 43.5533 61.1089 43.4531 61.1393 43.358C61.2612 42.9791 61.3783 42.647 61.4968 42.3112C61.7337 41.6432 61.9722 40.9884 62.206 40.3361C62.5476 39.3765 62.9051 38.386 63.1926 37.4642C63.3842 35.965 63.491 34.3482 63.6978 32.6915C63.7255 32.465 63.7539 32.2353 63.7817 32.0042C64.2899 27.6363 64.9368 22.8868 63.7621 19.4376C63.6956 19.2711 63.6284 19.1104 63.5599 18.957C63.2493 18.2168 62.8039 17.8443 62.5971 17.8699C62.4203 17.9731 62.2686 18.0557 62.1196 18.1123C60.8492 18.582 60.3864 19.0742 60.2261 19.5675C60.1598 19.7491 60.0911 19.9302 60.0228 20.107C59.1254 22.4034 58.2153 24.4888 57.7365 26.5815C57.6965 26.7555 57.6552 26.9274 57.6125 27.097C56.887 29.8446 56.0496 32.1105 55.8234 34.373C55.8084 34.5133 55.7922 34.6567 55.7757 34.7982C55.7534 34.9875 55.7296 35.1761 55.7055 35.364C55.7058 35.6101 55.7043 35.8587 55.6992 36.1096C55.6884 36.5789 55.6686 37.0575 55.6327 37.5456C55.5338 38.9091 55.2285 40.2489 54.8238 41.4748C54.7459 41.7132 54.6652 41.947 54.5909 42.1605C54.5603 42.2486 54.5308 42.3332 54.5067 42.4051C54.4955 42.4591 54.4844 42.5137 54.4729 42.5683C54.4643 42.6088 54.453 42.664 54.4427 42.7108C54.4389 42.728 54.429 42.7719 54.4211 42.8056C54.4144 42.8292 54.4231 42.8154 54.3702 42.9969C54.3612 43.0255 54.3505 43.0605 54.3268 43.1245C54.3146 43.1571 54.2992 43.1971 54.273 43.2564C54.265 43.2731 54.2342 43.3487 54.1614 43.4755C54.0699 43.605 54.0222 43.7933 53.5156 44.1891C53.2595 44.3722 52.7701 44.6536 52.0502 44.6216C51.3258 44.5985 50.6865 44.1522 50.4245 43.8235C49.8965 43.138 49.9559 42.8828 49.8998 42.7019C49.8518 42.3692 49.8711 42.3072 49.87 42.2279C49.8764 42.0965 49.8827 42.0655 49.8866 42.0295C49.8988 41.9387 49.8949 41.9697 49.8985 41.9447C49.9287 41.7653 49.9382 41.7257 49.9592 41.615C49.9802 41.5149 49.9996 41.4338 50.0171 41.3657C50.0309 41.295 50.0452 41.2242 50.0584 41.1555C50.121 40.8295 50.1823 40.5007 50.2421 40.1719C50.3621 39.5119 50.4766 38.8516 50.5855 38.1932C50.803 36.8743 51.0022 35.5534 51.1506 34.265C51.1652 34.137 51.1794 34.0085 51.1925 33.8837C51.2136 33.6764 51.2392 33.4704 51.267 33.2659C51.3125 32.1899 51.3731 31.0762 51.4821 29.9409C51.5227 29.5218 51.5604 29.1037 51.5937 28.6868C51.798 26.0641 52.0184 23.4978 51.842 21.1129C51.8127 20.7119 51.7892 20.3159 51.7671 19.9264C51.6951 18.1152 51.507 16.2405 51.0955 15.169C50.1859 16.7939 49.4649 18.792 48.8327 20.7799C48.7229 21.1275 48.6124 21.4735 48.5029 21.818C47.5718 24.7472 46.5994 27.5781 46.1112 30.3833C46.0681 30.6253 46.034 30.8963 46.0068 31.1814C45.6084 33.9928 46.4795 37.0131 44.3321 41.2336C44.2452 41.3648 44.1246 41.5294 43.9082 41.7146C43.7981 41.8073 43.6716 41.8995 43.4962 41.9912C43.2686 42.1104 42.9746 42.2067 42.6626 42.2321C42.3511 42.2597 42.034 42.2134 41.7769 42.1264C41.5361 42.0436 41.4052 41.9686 41.2664 41.8803C41.0041 41.7077 40.8504 41.5357 40.7514 41.4145C40.6116 41.2389 40.5448 41.1128 40.4935 41.0128C40.4537 40.933 40.4312 40.8796 40.4105 40.8277C40.3389 40.6405 40.328 40.5784 40.3104 40.5127C40.2821 40.395 40.2729 40.3326 40.2637 40.2773C40.2465 40.168 40.2385 40.094 40.2313 40.0224C40.2177 39.8821 40.2111 39.7648 40.2062 39.6479C40.1971 39.4148 40.1974 39.1926 40.2082 38.9557C40.2116 38.8817 40.2151 38.8062 40.2193 38.7286C40.2387 38.3273 40.238 37.9356 40.29 37.5618C40.6153 35.3313 41.0958 33.3978 41.0085 31.8295C40.9904 31.4703 40.9809 31.1187 40.9759 30.7736C40.9552 28.2494 41.1907 26.0114 40.8952 23.8974C40.8559 23.6106 40.8139 23.327 40.7675 23.0457C40.3137 20.0248 39.2578 16.9239 37.6625 16.4944C37.4066 16.3979 37.165 16.3085 36.9399 16.2321C36.3228 16.0145 35.8384 15.9751 35.6135 16.0169C35.6097 16.0273 35.6057 16.0377 35.602 16.0481C35.3974 16.6212 35.2503 17.2756 35.146 17.965C35.1066 18.2277 35.0649 18.4876 35.0223 18.7449C34.6275 21.0867 34.1664 23.2465 34.0839 25.3397C34.0745 25.5694 34.0661 25.7911 34.0577 26.0189C33.9483 29.1817 33.8881 32.2541 34.2352 35.1733C34.2565 35.3629 34.2771 35.552 34.2972 35.7407C34.5953 38.5147 34.8046 41.2481 35.1873 43.829C35.2122 43.9958 35.2348 44.1626 35.256 44.3269C35.6035 47.1137 35.5945 49.8781 36.3022 51.4255C36.3563 51.5403 36.4134 51.6604 36.4684 51.7763C37.8482 54.7411 39.4036 57.7733 40.0461 61.5336C40.0596 61.6272 40.0731 61.7206 40.0862 61.8143C40.4271 64.3065 40.3275 66.8656 40.2785 69.4511C40.2771 69.5121 40.2757 69.5734 40.275 69.6347C40.2726 69.8175 40.2711 70.0021 40.2694 70.1884C40.2949 72.4895 40.0354 75.2295 38.8226 77.4965C38.8038 77.5334 38.7848 77.5701 38.7661 77.6067C36.96 81.0905 35.1035 84.4841 32.7604 87.8054C32.6692 87.9241 32.5417 88.0157 32.3942 88.0531C32.2468 88.0906 32.0928 88.0715 31.9634 87.999C31.8341 87.9264 31.7377 87.8049 31.6928 87.6595C31.6479 87.5141 31.6596 87.3576 31.7135 87.2179C32.9658 83.5542 34.3796 79.7888 36.1924 76.2915C36.2113 76.2546 36.2304 76.2174 36.2494 76.1803C37.207 74.3665 37.5569 72.4188 37.5712 70.1503C37.5748 69.969 37.5773 69.7858 37.5797 69.6009C37.5805 69.5387 37.581 69.4762 37.5813 69.4136C37.5821 67.1174 36.792 64.8208 36.2629 62.5186C36.2427 62.4315 36.2224 62.3443 36.2019 62.2571C35.5048 59.5514 33.8703 56.7249 32.3733 53.8008C32.3132 53.6836 32.2507 53.5609 32.1905 53.4426C30.6962 50.1004 30.9502 47.372 30.5723 44.933C30.5545 44.795 30.5358 44.6578 30.5161 44.5242C30.1 41.6579 29.9516 38.8933 29.7076 36.1912C29.6913 36.0074 29.6752 35.8235 29.6587 35.6399C29.3405 32.2666 29.6112 29.0044 29.7165 25.859C29.725 25.6304 29.7328 25.4085 29.7407 25.1786C29.8275 22.6516 30.2588 20.2628 30.5881 18.0486C30.624 17.8063 30.6587 17.5664 30.6909 17.3289C30.8142 16.4331 30.9997 15.5122 31.3172 14.5695C31.4223 14.2589 31.541 13.9454 31.6795 13.6317C32.1794 12.5681 32.9715 12.1518 33.4876 11.9155C33.9842 11.7015 34.401 11.612 34.7948 11.5503C36.3053 11.3321 37.4874 11.7652 38.393 12.0773C38.6965 12.1858 38.9784 12.2961 39.2449 12.4014C42.3422 13.8491 43.5451 16.2639 44.1916 18.6366C44.9559 16.3624 45.8259 14.0938 47.2979 11.8126C47.5571 11.4221 47.8666 11.047 48.2149 10.6817C48.6162 10.1943 49.4322 9.6703 50.2319 9.58845C51.0266 9.49318 51.605 9.68113 52.0247 9.84813C52.8231 10.1922 53.2522 10.5736 53.6761 10.9706C55.7274 13.2781 55.918 15.4926 55.9493 17.4411C56.953 15.3027 59.2059 14.238 60.6688 13.8343C60.857 13.7764 61.0447 13.7486 61.2039 13.7385C62.1456 13.5059 62.9883 13.7664 63.5528 13.9929C63.8619 14.115 64.1216 14.2589 64.3519 14.4064C65.8108 15.3746 66.2376 16.6173 66.6877 17.5732C66.778 17.7791 66.8605 17.9817 66.9384 18.1806C67.9347 21.377 67.9358 24.305 67.6861 27.1297C68.4092 25.8902 69.1907 24.6703 70.0379 23.4457C70.1369 23.3096 70.2394 23.179 70.349 23.0507C71.95 21.1824 74.3938 20.7118 76.4641 21.0509C76.7901 21.0959 77.1126 21.2086 77.3818 21.3608ZM72.7309 57.0101C72.6769 57.042 72.6684 57.0525 72.6679 57.0541C72.6756 57.0529 72.6982 57.0364 72.7309 57.0101ZM64.7258 44.7729C64.7251 44.7705 64.7257 44.7789 64.7296 44.7589C64.7277 44.7662 64.7258 44.7729 64.7258 44.7729ZM50.3535 14.2214C50.2857 14.1809 50.2473 14.1658 50.3003 14.1989C50.3117 14.2037 50.3292 14.2116 50.3535 14.2214ZM75.7471 24.2617C75.7198 24.2255 75.6681 24.1905 75.645 24.2078C75.6222 24.221 75.6353 24.3021 75.7721 24.3921C75.7802 24.3974 75.7893 24.4016 75.7982 24.4067C75.7833 24.3571 75.767 24.3081 75.7471 24.2617Z" fill="#7C84FE"/>
</svg>
